<svg xmlns="http://www.w3.org/2000/svg" viewBox="0 0 64 64" role="img" aria-labelledby="title">
  <title>VibeRecall</title>
  <defs>
    <linearGradient id="vr-gradient" x1="0%" y1="0%" x2="100%" y2="100%">
      <stop offset="0%" stop-color="#7a2dbe" />
      <stop offset="100%" stop-color="#a855f7" />
    </linearGradient>
  </defs>
  <rect x="8" y="8" width="48" height="48" rx="12" fill="url(#vr-gradient)" />
  <g transform="translate(20 20)" fill="none" stroke="#ffffff" stroke-linecap="round" stroke-linejoin="round" stroke-width="2">
    <path d="M12 18V5" />
    <path d="M15 13a4.17 4.17 0 0 1-3-4 4.17 4.17 0 0 1-3 4" />
    <path d="M17.598 6.5A3 3 0 1 0 12 5a3 3 0 1 0-5.598 1.5" />
    <path d="M17.997 5.125a4 4 0 0 1 2.526 5.77" />
    <path d="M18 18a4 4 0 0 0 2-7.464" />
    <path d="M19.967 17.483A4 4 0 1 1 12 18a4 4 0 1 1-7.967-.517" />
    <path d="M6 18a4 4 0 0 1-2-7.464" />
    <path d="M6.003 5.125a4 4 0 0 0-2.526 5.77" />
  </g>
</svg>
